<?xml version="1.0" encoding="UTF-8"?>
<svg version="1.1" xmlns="http://www.w3.org/2000/svg" width="500" height="500">
<path d="M0 0 C4.13505053 0.00685789 8.27006471 -0.00372372 12.40510774 -0.01193976 C20.48200123 -0.02520822 28.55881061 -0.0224303 36.63570726 -0.01370184 C43.20597296 -0.00689838 49.77621525 -0.00602002 56.34648347 -0.00927329 C57.28524582 -0.00973299 58.22400817 -0.01019269 59.19121787 -0.01066632 C61.0989041 -0.01162559 63.00659032 -0.01259824 64.91427654 -0.01358409 C82.7597788 -0.02211781 100.60523466 -0.01233565 118.45072931 0.00381701 C133.72899728 0.01721834 149.00719684 0.01488968 164.28546357 0.00106072 C182.07157301 -0.01503088 199.85764188 -0.02129402 217.64375758 -0.01210248 C219.54402534 -0.01114694 221.4442931 -0.01020383 223.34456086 -0.00927329 C224.74663937 -0.00857905 224.74663937 -0.00857905 226.17704269 -0.00787079 C232.73162051 -0.00529162 239.28617237 -0.00962862 245.84074616 -0.01671195 C253.83974141 -0.02516706 261.83864846 -0.02276315 269.83763373 -0.00686972 C273.91082402 0.00095942 277.9838678 0.00419733 282.05705667 -0.00581717 C313.84609832 -0.07733246 344.35687685 2.04319837 368.49395967 25.47811151 C375.92239225 33.36192693 380.86271465 42.41580691 384.59552217 52.51717401 C384.82964814 53.13012322 385.06377412 53.74307244 385.30499482 54.37459588 C391.52746373 72.30601166 390.78367231 91.34683544 390.73769617 110.04665184 C390.73083828 114.18170237 390.74141989 118.31671655 390.74963593 122.45175958 C390.76290439 130.52865307 390.76012647 138.60546245 390.75139801 146.6823591 C390.74459456 153.2526248 390.74371619 159.82286709 390.74696946 166.39313531 C390.74742916 167.33189766 390.74788886 168.27066001 390.74836249 169.23786971 C390.74932176 171.14555594 390.75029441 173.05324216 390.75128026 174.96092838 C390.75981398 192.80643064 390.75003182 210.6518865 390.73387916 228.49738115 C390.72047783 243.77564912 390.72280649 259.05384868 390.73663545 274.33211541 C390.75272705 292.11822485 390.75899019 309.90429372 390.74979866 327.69040942 C390.74884311 329.59067718 390.7479 331.49094494 390.74696946 333.3912127 C390.74650663 334.32593171 390.74604381 335.26065071 390.74556696 336.22369453 C390.74298779 342.77827235 390.74732479 349.33282421 390.75440812 355.887398 C390.76286323 363.88639325 390.76045932 371.8853003 390.74456589 379.88428557 C390.73673675 383.95747586 390.73349884 388.03051964 390.74351335 392.10370851 C390.81502863 423.89275016 388.6944978 454.40352869 365.25958467 478.54061151 C357.37576924 485.96904409 348.32188926 490.90936649 338.22052217 494.64217401 C337.60757295 494.87629998 336.99462373 495.11042596 336.36310029 495.35164666 C318.43168451 501.57411557 299.39086073 500.83032415 280.69104433 500.78434801 C276.5559938 500.77749012 272.42097962 500.78807173 268.28593659 500.79628778 C260.2090431 500.80955623 252.13223372 500.80677832 244.05533707 500.79804985 C237.48507137 500.7912464 230.91482908 500.79036803 224.34456086 500.7936213 C223.40579851 500.794081 222.46703616 500.7945407 221.49982646 500.79501433 C219.59214023 500.7959736 217.68445401 500.79694625 215.77676779 500.7979321 C197.93126553 500.80646582 180.08580967 500.79668366 162.24031502 500.780531 C146.96204705 500.76712967 131.68384749 500.76945833 116.40558076 500.78328729 C98.61947132 500.79937889 80.83340245 500.80564203 63.04728675 500.7964505 C61.147019 500.79549495 59.24675124 500.79455184 57.34648347 500.7936213 C55.94440496 500.79292706 55.94440496 500.79292706 54.51400164 500.7922188 C47.95942382 500.78963963 41.40487196 500.79397663 34.85029817 500.80105996 C26.85130292 500.80951507 18.85239588 500.80711116 10.8534106 500.79121773 C6.78022031 500.78338859 2.70717653 500.78015068 -1.36601233 500.79016519 C-33.15505399 500.86168047 -63.66583252 498.74114964 -87.80291533 475.30623651 C-95.23134792 467.42242108 -100.17167032 458.3685411 -103.90447783 448.26717401 C-104.13860381 447.65422479 -104.37272979 447.04127557 -104.61395049 446.40975213 C-110.8364194 428.47833635 -110.09262798 409.43751257 -110.04665184 390.73769617 C-110.03979395 386.60264564 -110.05037556 382.46763146 -110.0585916 378.33258843 C-110.07186006 370.25569494 -110.06908214 362.17888556 -110.06035368 354.10198891 C-110.05355022 347.53172321 -110.05267186 340.96148092 -110.05592513 334.3912127 C-110.05638483 333.45245035 -110.05684453 332.513688 -110.05731816 331.5464783 C-110.05827743 329.63879207 -110.05925008 327.73110585 -110.06023593 325.82341963 C-110.06876965 307.97791737 -110.05898749 290.13246151 -110.04283483 272.28696686 C-110.0294335 257.00869889 -110.03176216 241.73049933 -110.04559112 226.4522326 C-110.06168272 208.66612316 -110.06794586 190.88005429 -110.05875432 173.09393859 C-110.05779878 171.19367084 -110.05685567 169.29340308 -110.05592513 167.39313531 C-110.0554623 166.4584163 -110.05499948 165.5236973 -110.05452263 164.56065348 C-110.05194346 158.00607566 -110.05628046 151.4515238 -110.06336379 144.89695001 C-110.0718189 136.89795476 -110.06941499 128.89904772 -110.05352156 120.90006244 C-110.04569242 116.82687215 -110.04245451 112.75382837 -110.05246902 108.68063951 C-110.1239843 76.89159785 -108.00345347 46.38081932 -84.56854033 22.24373651 C-76.68472491 14.81530392 -67.63084493 9.87498152 -57.52947783 6.14217401 C-56.91652862 5.90804803 -56.3035794 5.67392205 -55.67205596 5.43270135 C-37.74064018 -0.78976756 -18.6998164 -0.04597614 0 0 Z " fill="#EEEEEE" transform="translate(109.65447783470154,-0.39217400550842285)"/>
<path d="M0 0 C0.88308838 -0.00860046 1.76617676 -0.01720093 2.67602539 -0.02606201 C3.64744476 -0.03032196 4.61886414 -0.03458191 5.61972046 -0.03897095 C7.15170074 -0.05123718 7.15170074 -0.05123718 8.71463013 -0.06375122 C12.10665293 -0.08863485 15.49863373 -0.10513093 18.89071655 -0.11953735 C20.04834881 -0.12486103 21.20598106 -0.13018471 22.39869308 -0.13566971 C28.52867725 -0.16241712 34.65864096 -0.18178495 40.78866577 -0.19619751 C47.11724241 -0.21282818 53.44529656 -0.25758887 59.77367592 -0.30856895 C64.64136341 -0.34225116 69.50892721 -0.35377622 74.37672043 -0.35942459 C76.70907956 -0.36613678 79.04143056 -0.38135785 81.3736763 -0.4053154 C84.64362129 -0.43698234 87.91216197 -0.43700048 91.18222046 -0.42959595 C92.14149445 -0.44600128 93.10076843 -0.46240662 94.08911133 -0.47930908 C100.4920683 -0.42012859 104.97785883 0.78784945 109.78915405 5.15390015 C114.37868042 10.29140919 114.36320625 15.88530644 114.30673218 22.49203491 C114.31374146 23.50754425 114.32075073 24.52305359 114.32797241 25.56933594 C114.34551557 28.91160778 114.33394306 32.2530266 114.32040405 35.5953064 C114.3230998 37.92505556 114.32698291 40.25480363 114.33200073 42.58454895 C114.33789064 47.46088399 114.32934802 52.33692546 114.31063843 57.21322632 C114.28783694 63.46002061 114.30098339 69.70612791 114.32492828 75.95289707 C114.33938889 80.76134916 114.33477919 85.56963861 114.32441711 90.37809563 C114.32175123 92.68136616 114.32501468 94.98465152 114.33433533 97.28790474 C114.3445062 100.5073873 114.32899162 103.72575992 114.30673218 106.94515991 C114.3148291 107.89441849 114.32292603 108.84367706 114.33126831 109.82170105 C114.24531896 116.53971737 112.92241776 119.92870694 108.1914978 124.7984314 C104.26642987 127.92801889 101.55483652 129.27254189 96.57194519 129.30107117 C95.28311432 129.31180412 95.28311432 129.31180412 93.96824646 129.32275391 C93.02847458 129.32544281 92.0887027 129.32813171 91.12045288 129.3309021 C89.63214462 129.3407589 89.63214462 129.3407589 88.11376953 129.35081482 C84.82457403 129.37055231 81.53542423 129.38221216 78.2461853 129.3921814 C77.12256781 129.39625692 75.99895031 129.40033245 74.8412838 129.40453148 C68.89283812 129.42539526 62.94441552 129.43969503 56.99594116 129.44906616 C50.85691891 129.46012436 44.71825973 129.49451697 38.57936573 129.53423786 C33.85493809 129.56040663 29.13059687 129.56875831 24.40610313 129.57234764 C22.14353677 129.57721377 19.88097427 129.58882845 17.61847878 129.60738564 C14.44697091 129.63177927 11.27640119 129.63081115 8.10482788 129.62387085 C6.71035179 129.64308594 6.71035179 129.64308594 5.28770447 129.66268921 C-0.69088818 129.61515306 -5.22303553 128.55624608 -10.21084595 125.15390015 C-13.93912895 121.23442314 -15.3282901 118.17336285 -15.35801697 112.80934143 C-15.36517227 111.92198807 -15.37232758 111.0346347 -15.37969971 110.12039185 C-15.38238861 109.14942566 -15.38507751 108.17845947 -15.3878479 107.17807007 C-15.3944191 106.15339127 -15.4009903 105.12871246 -15.40776062 104.07298279 C-15.42749659 100.67677744 -15.43915623 97.28061629 -15.4491272 93.8843689 C-15.45320272 92.72515741 -15.45727825 91.56594593 -15.46147728 90.37160683 C-15.48233816 84.23743492 -15.49664047 78.1032854 -15.50601196 71.96908569 C-15.51708322 65.63033346 -15.55149173 59.29193161 -15.59118366 52.95330334 C-15.61731349 48.08140912 -15.62570054 43.2095989 -15.62929344 38.33764076 C-15.63416788 36.00085391 -15.64580612 33.66407102 -15.66433144 31.32735252 C-15.68864731 28.05725595 -15.68777141 24.78807289 -15.68081665 21.51791382 C-15.69362671 20.55302032 -15.70643677 19.58812683 -15.71963501 18.59399414 C-15.67573757 12.93084241 -15.03365388 9.62514182 -11.21084595 5.15390015 C-7.39322862 1.79076107 -5.06869671 0.0367073 0 0 Z " fill="#281914" transform="translate(200.21084594726563,101.84609985351563)"/>
<path d="M0 0 C1.48259056 -0.01073296 1.48259056 -0.01073296 2.99513245 -0.02168274 C4.08347382 -0.02437164 5.17181519 -0.02706055 6.2931366 -0.02983093 C7.43631851 -0.03640213 8.57950043 -0.04297333 9.75732422 -0.04974365 C13.55336059 -0.06951004 17.34935736 -0.0811461 21.14543152 -0.09111023 C22.43919897 -0.09518576 23.73296642 -0.09926128 25.06593895 -0.10346031 C31.20567129 -0.12218019 37.34538369 -0.13674339 43.48513871 -0.14507228 C50.57192306 -0.1548446 57.65839505 -0.18116337 64.74506932 -0.22157317 C70.88319879 -0.2553727 77.02119692 -0.26721734 83.15941429 -0.27127647 C85.77055162 -0.27615716 88.38168527 -0.28781293 90.99276161 -0.30631447 C94.64392284 -0.33057958 98.29426371 -0.32976359 101.94548035 -0.32279968 C103.02774902 -0.33560974 104.1100177 -0.3484198 105.2250824 -0.36161804 C112.55677583 -0.31054739 112.55677583 -0.31054739 116.46139526 2.05154419 C119.16724056 5.11332965 119.4398152 6.76342568 119.45384216 10.75784302 C119.45955231 11.72940842 119.46526245 12.70097382 119.47114563 13.70198059 C119.47282242 15.30644043 119.47282242 15.30644043 119.47453308 16.9433136 C119.47949799 18.06698837 119.48446289 19.19066315 119.48957825 20.34838867 C119.50422775 24.07949935 119.51100661 27.81056751 119.51652527 31.54170227 C119.52227453 34.12761436 119.52803229 36.71352643 119.53379822 39.29943848 C119.54297061 44.03315926 119.54926762 48.76686296 119.55229497 53.5005911 C119.55677413 60.46619891 119.57431431 67.43161034 119.60329556 74.39715844 C119.62752678 80.43063512 119.6352398 86.46401898 119.63697052 92.49754906 C119.64000155 95.06401831 119.64804513 97.63048665 119.6611557 100.19692421 C119.67817971 103.78571635 119.67634454 107.37402889 119.66984558 110.96284485 C119.67906036 112.02641205 119.68827515 113.08997925 119.69776917 114.18577576 C119.64601758 123.29269856 119.64601758 123.29269856 116.31340027 127.14717102 C112.58799365 129.63077543 110.68277054 129.37875772 106.23918152 129.34248352 C104.98790466 129.3374884 103.73662781 129.33249329 102.44743347 129.3273468 C100.85632751 129.30913879 99.26522156 129.29093079 97.62590027 129.27217102 C92.57277527 129.23092102 87.51965027 129.18967102 82.31340027 129.14717102 C82.31340027 115.94717102 82.31340027 102.74717102 82.31340027 89.14717102 C75.05340027 89.14717102 67.79340027 89.14717102 60.31340027 89.14717102 C60.31340027 102.34717102 60.31340027 115.54717102 60.31340027 129.14717102 C51.40340027 129.14717102 42.49340027 129.14717102 33.31340027 129.14717102 C33.31340027 116.27717102 33.31340027 103.40717102 33.31340027 90.14717102 C26.38340027 90.14717102 19.45340027 90.14717102 12.31340027 90.14717102 C12.31340027 103.01717102 12.31340027 115.88717102 12.31340027 129.14717102 C6.70340027 129.14717102 1.09340027 129.14717102 -4.68659973 129.14717102 C-10.80606807 123.02770268 -10.80606807 123.02770268 -10.83377075 117.53649902 C-10.84092606 116.56493362 -10.84808136 115.59336823 -10.85545349 114.59236145 C-10.85948685 112.98790161 -10.85948685 112.98790161 -10.86360168 111.35102844 C-10.87017288 110.22735367 -10.87674408 109.10367889 -10.8835144 107.94595337 C-10.90328008 104.21484822 -10.91491672 100.48378336 -10.92488098 96.75263977 C-10.92895651 95.48093744 -10.93303204 94.20923512 -10.93723106 92.89899635 C-10.95595075 86.86391347 -10.97051398 80.82885512 -10.97884303 74.79375094 C-10.98861512 67.82808523 -11.0149333 60.86273732 -11.05534393 53.8971836 C-11.08914542 47.86370257 -11.10098824 41.83037582 -11.10504723 35.79679298 C-11.10992761 33.23031267 -11.12158254 30.66383609 -11.14008522 28.09741783 C-11.16435301 24.50851826 -11.16353387 20.92045316 -11.15657043 17.33149719 C-11.16938049 16.26792999 -11.18219055 15.20436279 -11.19538879 14.10856628 C-11.14432098 6.90104219 -11.14432098 6.90104219 -8.78222656 3.01065063 C-5.70134683 0.27106146 -4.03102015 0.01998815 0 0 Z " fill="#281914" transform="translate(56.68659973144531,101.85282897949219)"/>
<path d="M0 0 C1.02497086 -0.00686325 2.04994171 -0.0137265 3.10597229 -0.02079773 C6.49144372 -0.03908714 9.87645269 -0.03522504 13.26196289 -0.02954102 C15.61699067 -0.03410177 17.97201712 -0.03940703 20.32704163 -0.04542542 C25.26235359 -0.05436075 30.19750378 -0.05192846 35.1328125 -0.04199219 C41.45586569 -0.0305022 47.77836047 -0.05071291 54.10134029 -0.07990932 C58.96468144 -0.09825953 63.82788849 -0.09798117 68.69125557 -0.0922718 C71.02244411 -0.09211845 73.35364166 -0.09817472 75.68479729 -0.11056328 C78.94516865 -0.12544856 82.20450468 -0.11481332 85.46484375 -0.09765625 C86.42659515 -0.10732422 87.38834656 -0.11699219 88.37924194 -0.12695312 C95.13532683 -0.05254548 98.58553432 1.21535332 103.44165039 6.03686523 C110.22639169 14.70499626 107.79711914 13.99025618 107.79711914 29.40405273 C86.67711914 29.40405273 65.55711914 29.40405273 43.79711914 29.40405273 C43.79711914 36.33405273 43.79711914 43.26405273 43.79711914 50.40405273 C64.91711914 50.40405273 86.03711914 50.40405273 107.79711914 50.40405273 C107.95755438 66.55453329 107.95755438 66.55453329 107.99243164 73.47436523 C108.01628144 78.18386005 108.04440068 82.8930418 108.09887695 87.60229492 C108.14255214 91.40190547 108.16630153 95.20118001 108.17662811 99.00102234 C108.18398088 100.44582911 108.19833882 101.89061887 108.22003937 103.33528137 C108.44168698 118.71182573 108.44168698 118.71182573 103.79711914 124.40405273 C98.00140641 129.40867911 92.70282174 130.12654974 85.25366211 130.03515625 C84.22825317 130.04231155 83.20284424 130.04946686 82.1463623 130.05683899 C78.77688246 130.07366669 75.40874397 130.05435967 72.03930664 130.03295898 C69.688567 130.03378809 67.33782742 130.03624906 64.98709106 130.04026794 C60.06958488 130.04312174 55.15253524 130.02846255 50.23510742 130.00097656 C43.93563382 129.96685764 37.63697431 129.97292886 31.33746147 129.99163914 C26.48696111 130.00221133 21.63664991 129.99326978 16.78616714 129.97825432 C14.46336555 129.97307624 12.14054417 129.97354975 9.81774521 129.97979927 C6.57199396 129.98525537 3.32740579 129.96486348 0.08178711 129.9375 C-1.35377029 129.94728882 -1.35377029 129.94728882 -2.81832886 129.95727539 C-8.45301658 129.87658736 -11.74763786 129.19160982 -16.20288086 125.40405273 C-23.57259602 117.23761161 -21.20288086 113.50556694 -21.20288086 100.40405273 C-0.74288086 100.40405273 19.71711914 100.40405273 40.79711914 100.40405273 C40.79711914 93.47405273 40.79711914 86.54405273 40.79711914 79.40405273 C20.33711914 79.40405273 -0.12288086 79.40405273 -21.20288086 79.40405273 C-21.44353372 62.75444033 -21.44353372 62.75444033 -21.49584961 55.62280273 C-21.53163107 50.76823265 -21.57382364 45.91434561 -21.65551758 41.06030273 C-21.72101303 37.14394177 -21.75664949 33.22831377 -21.77214432 29.31144714 C-21.78317713 27.82191945 -21.80472223 26.33242905 -21.8372612 24.84321594 C-22.13161861 10.80498163 -22.13161861 10.80498163 -16.98306274 4.89660645 C-11.35953374 0.18168425 -7.13454862 -0.03332438 0 0 Z " fill="#281914" transform="translate(343.202880859375,268.595947265625)"/>
<path d="M0 0 C1.02526291 -0.00569504 2.05052582 -0.01139008 3.1068573 -0.01725769 C6.48202253 -0.02833498 9.85523277 0.00365882 13.23022461 0.03735352 C15.58239006 0.04093198 17.93455986 0.04228775 20.28672791 0.04151917 C25.21030618 0.04620571 30.13322757 0.07101204 35.05664062 0.11132812 C41.36391122 0.16232537 47.67046122 0.17376984 53.97791386 0.17149258 C58.83270633 0.17230876 63.68734167 0.18876912 68.54208183 0.2104969 C70.86766814 0.22003445 73.19327223 0.22595387 75.51887703 0.22817802 C78.76940295 0.23469144 82.01916901 0.26097092 85.26953125 0.29296875 C86.22814056 0.29160919 87.18674988 0.29024963 88.17440796 0.28884888 C94.11388062 0.37423373 98.60113944 1.08422688 103.21459961 5.19360352 C105.4599017 8.02463659 106.86219938 10.20463788 107.57006836 13.72875977 C106.14828321 14.84587667 104.72649397 15.96298836 103.3046875 17.08007812 C102.04599368 18.06908725 100.78736937 19.05818486 99.52880859 20.04736328 C96.37096031 22.52911667 93.21230281 25.00981102 90.05053711 27.48657227 C84.03224016 32.2034533 78.03581092 36.94553461 72.07006836 41.72875977 C62.34005886 49.52819175 52.59528583 57.31009884 42.57006836 64.72875977 C46.10863109 68.40518858 49.83160425 71.62242287 53.88256836 74.72875977 C59.11006466 78.78262304 64.26674355 82.90999516 69.38256836 87.10375977 C76.97209 93.30707163 84.73345699 99.26715577 92.54370117 105.1887207 C95.75051378 107.62589828 98.9418857 110.08302523 102.13256836 112.54125977 C102.68710693 112.96818115 103.24164551 113.39510254 103.81298828 113.83496094 C105.06553667 114.79931594 106.31783505 115.76399566 107.57006836 116.72875977 C106.97232549 119.95941763 105.94872339 121.86301393 103.82006836 124.35375977 C103.33022461 124.94415039 102.84038086 125.53454102 102.33569336 126.14282227 C97.42058516 130.55772034 91.5934954 130.02514257 85.3671875 130.01928711 C83.82973122 130.02936295 83.82973122 130.02936295 82.26121521 130.03964233 C78.8758356 130.05862737 75.49065413 130.06254661 72.10522461 130.06469727 C69.75019753 130.07112408 67.39517126 130.07785235 65.04014587 130.08486938 C60.10487008 130.09684288 55.16966429 130.10055005 50.234375 130.09936523 C43.91134742 130.09916187 37.58876842 130.12648204 31.26584721 130.16090965 C26.40252114 130.18314751 21.53930364 130.18720375 16.67593193 130.18614578 C14.34473561 130.18850574 12.01353647 130.19735135 9.68239021 130.21281052 C6.42205483 130.23240978 3.16269489 130.22665597 -0.09765625 130.21459961 C-1.05940765 130.22583862 -2.02115906 130.23707764 -3.01205444 130.24865723 C-8.6537089 130.19565407 -11.99407499 129.56508409 -16.42993164 125.72875977 C-19.72776569 121.36135792 -21.54581456 117.97907608 -21.57710266 112.50482178 C-21.58425797 111.64415604 -21.59141327 110.7834903 -21.5987854 109.89674377 C-21.6014743 108.95540085 -21.60416321 108.01405792 -21.60693359 107.04418945 C-21.61350479 106.05037766 -21.62007599 105.05656586 -21.62684631 104.03263855 C-21.64658199 100.73863654 -21.65824257 97.44468013 -21.66821289 94.15063477 C-21.67228842 93.02576912 -21.67636395 91.90090347 -21.68056297 90.74195099 C-21.70142488 84.78817427 -21.71572609 78.83442061 -21.72509766 72.88061523 C-21.73616212 66.73252689 -21.7705625 60.58480046 -21.81026936 54.43684006 C-21.83642006 49.70816375 -21.84478815 44.97957387 -21.84837914 40.2508316 C-21.85324908 37.98464768 -21.8648746 35.71846772 -21.88341713 33.45235443 C-21.90777483 30.27824763 -21.90684934 27.10507993 -21.89990234 23.9309082 C-21.9127124 22.9976622 -21.92552246 22.0644162 -21.9387207 21.10289001 C-21.87708655 13.36340083 -19.75721796 8.80919653 -14.33180237 3.33680725 C-9.85941205 -0.22966953 -5.53412171 -0.09753142 0 0 Z " fill="#281914" transform="translate(204.429931640625,268.271240234375)"/>
<path d="M0 0 C1.02497086 -0.00686325 2.04994171 -0.0137265 3.10597229 -0.02079773 C6.49144372 -0.03908714 9.87645269 -0.03522504 13.26196289 -0.02954102 C15.61699067 -0.03410177 17.97201712 -0.03940703 20.32704163 -0.04542542 C25.26235359 -0.05436075 30.19750378 -0.05192846 35.1328125 -0.04199219 C41.45586569 -0.0305022 47.77836047 -0.05071291 54.10134029 -0.07990932 C58.96468144 -0.09825953 63.82788849 -0.09798117 68.69125557 -0.0922718 C71.02244411 -0.09211845 73.35364166 -0.09817472 75.68479729 -0.11056328 C78.94516865 -0.12544856 82.20450468 -0.11481332 85.46484375 -0.09765625 C86.42659515 -0.10732422 87.38834656 -0.11699219 88.37924194 -0.12695312 C95.13532683 -0.05254548 98.58553432 1.21535332 103.44165039 6.03686523 C111.72624104 16.62119174 107.79711914 15.81502462 107.79711914 36.40405273 C86.01711914 36.40405273 64.23711914 36.40405273 41.79711914 36.40405273 C41.79711914 55.21405273 41.79711914 74.02405273 41.79711914 93.40405273 C63.57711914 93.40405273 85.35711914 93.40405273 107.79711914 93.40405273 C107.79711914 120.21680254 107.79711914 120.21680254 102.02716255 126.2568655 C96.4362259 129.65777674 91.72098761 130.11450365 85.25366211 130.03515625 C84.22825317 130.04231155 83.20284424 130.04946686 82.1463623 130.05683899 C78.77688246 130.07366669 75.40874397 130.05435967 72.03930664 130.03295898 C69.688567 130.03378809 67.33782742 130.03624906 64.98709106 130.04026794 C60.06958488 130.04312174 55.15253524 130.02846255 50.23510742 130.00097656 C43.93563382 129.96685764 37.63697431 129.97292886 31.33746147 129.99163914 C26.48696111 130.00221133 21.63664991 129.99326978 16.78616714 129.97825432 C14.46336555 129.97307624 12.14054417 129.97354975 9.81774521 129.97979927 C6.57199396 129.98525537 3.32740579 129.96486348 0.08178711 129.9375 C-1.35377029 129.94728882 -1.35377029 129.94728882 -2.81832886 129.95727539 C-8.45301658 129.87658736 -11.74763786 129.19160982 -16.20288086 125.40405273 C-19.82618298 121.38904228 -21.31533464 118.46130984 -21.36351013 113.07295227 C-21.37355576 112.18848923 -21.38360138 111.30402618 -21.39395142 110.39276123 C-21.40269791 108.94102509 -21.40269791 108.94102509 -21.41162109 107.45996094 C-21.42140488 106.43849472 -21.43118866 105.4170285 -21.44126892 104.36460876 C-21.47122713 100.97803044 -21.49261033 97.59149164 -21.51147461 94.20483398 C-21.51804644 93.0481188 -21.52461826 91.89140362 -21.53138924 90.69963646 C-21.56398567 84.57613727 -21.58843517 78.45265549 -21.60791016 72.32910156 C-21.62572045 67.26276312 -21.66053709 62.19698153 -21.71044922 57.13085938 C-21.77065344 51.01301083 -21.80138661 44.89567852 -21.81108284 38.77754784 C-21.81963859 36.44795922 -21.83845944 34.11838444 -21.86782646 31.78896523 C-21.90677262 28.52373909 -21.90777071 25.26052079 -21.89990234 21.99511719 C-21.91990295 21.03741425 -21.93990356 20.0797113 -21.96051025 19.09298706 C-21.88657395 12.23903446 -20.04871281 8.25876652 -15.20288086 3.40405273 C-10.71682114 -0.55552026 -5.69398036 -0.02659571 0 0 Z " fill="#281914" transform="translate(66.202880859375,268.595947265625)"/>
</svg>
